static unsigned char table[4763] = 
{
	0x4D, 0x54, 0x68, 0x64, 0x00, 0x00, 0x00, 0x06, 0x00, 0x01, 0x00, 0x03, 0x00, 0xC0, 0x4D, 0x54, 
	0x72, 0x6B, 0x00, 0x00, 0x00, 0x6C, 0x00, 0xFF, 0x02, 0x37, 0x43, 0x6F, 0x70, 0x79, 0x72, 0x69, 
	0x67, 0x68, 0x74, 0x20, 0xA9, 0x20, 0x31, 0x39, 0x39, 0x35, 0x20, 0x3C, 0x53, 0x6F, 0x6E, 0x67, 
	0x20, 0x41, 0x75, 0x74, 0x68, 0x6F, 0x72, 0x20, 0x4E, 0x61, 0x6D, 0x65, 0x3E, 0x0D, 0x41, 0x6C, 
	0x6C, 0x20, 0x52, 0x69, 0x67, 0x68, 0x74, 0x73, 0x20, 0x52, 0x65, 0x73, 0x65, 0x72, 0x76, 0x65, 
	0x64, 0x00, 0xFF, 0x01, 0x1B, 0x47, 0x65, 0x6E, 0x65, 0x72, 0x61, 0x74, 0x65, 0x64, 0x20, 0x62, 
	0x79, 0x20, 0x4E, 0x6F, 0x74, 0x65, 0x57, 0x6F, 0x72, 0x74, 0x68, 0x79, 0x20, 0x31, 0x2E, 0x30, 
	0x00, 0xFF, 0x59, 0x02, 0x02, 0x00, 0x00, 0xFF, 0x58, 0x04, 0x04, 0x02, 0x18, 0x08, 0x00, 0xFF, 
	0x2F, 0x00, 0x4D, 0x54, 0x72, 0x6B, 0x00, 0x00, 0x09, 0x38, 0x00, 0xFF, 0x21, 0x01, 0x00, 0x00, 
	0xFF, 0x01, 0x0B, 0x55, 0x6E, 0x6E, 0x61, 0x6D, 0x65, 0x64, 0x2D, 0x30, 0x30, 0x30, 0x00, 0xFF, 
	0x03, 0x0B, 0x55, 0x6E, 0x6E, 0x61, 0x6D, 0x65, 0x64, 0x2D, 0x30, 0x30, 0x30, 0x00, 0xFF, 0x04, 
	0x0B, 0x55, 0x6E, 0x6E, 0x61, 0x6D, 0x65, 0x64, 0x2D, 0x30, 0x30, 0x30, 0x00, 0xC0, 0x01, 0x00, 
	0xB0, 0x07, 0x7F, 0x00, 0xB0, 0x0A, 0x40, 0x84, 0x40, 0x90, 0x3E, 0x32, 0x5E, 0x90, 0x3E, 0x00, 
	0x02, 0x90, 0x40, 0x32, 0x5E, 0x90, 0x40, 0x00, 0x02, 0x90, 0x42, 0x32, 0x81, 0x3E, 0x90, 0x42, 
	0x00, 0x02, 0x90, 0x45, 0x32, 0x81, 0x3E, 0x90, 0x45, 0x00, 0x02, 0x90, 0x45, 0x32, 0x81, 0x3E, 
	0x90, 0x45, 0x00, 0x02, 0x90, 0x42, 0x32, 0x5E, 0x90, 0x42, 0x00, 0x02, 0x90, 0x45, 0x32, 0x5E, 
	0x90, 0x45, 0x00, 0x02, 0x90, 0x47, 0x32, 0x81, 0x3E, 0x90, 0x47, 0x00, 0x02, 0x90, 0x42, 0x32, 
	0x5E, 0x90, 0x42, 0x00, 0x02, 0x90, 0x45, 0x32, 0x82, 0x1E, 0x90, 0x45, 0x00, 0x02, 0x90, 0x42, 
	0x32, 0x5E, 0x90, 0x42, 0x00, 0x02, 0x90, 0x45, 0x32, 0x5E, 0x90, 0x45, 0x00, 0x02, 0x90, 0x43, 
	0x32, 0x00, 0x90, 0x47, 0x32, 0x81, 0x3E, 0x90, 0x43, 0x00, 0x00, 0x90, 0x47, 0x00, 0x02, 0x90, 
	0x4A, 0x32, 0x81, 0x3E, 0x90, 0x4A, 0x00, 0x02, 0x90, 0x42, 0x32, 0x00, 0x90, 0x47, 0x32, 0x5E, 
	0x90, 0x42, 0x00, 0x00, 0x90, 0x47, 0x00, 0x02, 0x90, 0x45, 0x32, 0x5E, 0x90, 0x45, 0x00, 0x62, 
	0x90, 0x47, 0x32, 0x5E, 0x90, 0x47, 0x00, 0x02, 0x90, 0x47, 0x32, 0x60, 0x90, 0x47, 0x00, 0x83, 
	0x60, 0x90, 0x42, 0x32, 0x5E, 0x90, 0x42, 0x00, 0x02, 0x90, 0x45, 0x32, 0x5E, 0x90, 0x45, 0x00, 
	0x02, 0x90, 0x43, 0x32, 0x00, 0x90, 0x47, 0x32, 0x81, 0x3E, 0x90, 0x43, 0x00, 0x00, 0x90, 0x47, 
	0x00, 0x02, 0x90, 0x4A, 0x32, 0x81, 0x3E, 0x90, 0x4A, 0x00, 0x02, 0x90, 0x4A, 0x32, 0x5E, 0x90, 
	0x4A, 0x00, 0x02, 0x90, 0x47, 0x32, 0x81, 0x3E, 0x90, 0x47, 0x00, 0x02, 0x90, 0x4A, 0x32, 0x5E, 
	0x90, 0x4A, 0x00, 0x02, 0x90, 0x43, 0x32, 0x00, 0x90, 0x47, 0x32, 0x00, 0x90, 0x4C, 0x32, 0x81, 
	0x3E, 0x90, 0x43, 0x00, 0x00, 0x90, 0x47, 0x00, 0x00, 0x90, 0x4C, 0x00, 0x02, 0x90, 0x4A, 0x32, 
	0x5E, 0x90, 0x4A, 0x00, 0x02, 0x90, 0x47, 0x32, 0x5E, 0x90, 0x47, 0x00, 0x81, 0x42, 0x90, 0x47, 
	0x32, 0x5E, 0x90, 0x47, 0x00, 0x02, 0x90, 0x43, 0x32, 0x5E, 0x90, 0x43, 0x00, 0x02, 0x90, 0x44, 
	0x32, 0x00, 0x90, 0x47, 0x32, 0x81, 0x3E, 0x90, 0x44, 0x00, 0x00, 0x90, 0x47, 0x00, 0x02, 0x90, 
	0x4A, 0x32, 0x81, 0x3E, 0x90, 0x4A, 0x00, 0x02, 0x90, 0x47, 0x32, 0x81, 0x3E, 0x90, 0x47, 0x00, 
	0x02, 0x90, 0x42, 0x32, 0x5E, 0x90, 0x42, 0x00, 0x02, 0x90, 0x40, 0x32, 0x5E, 0x90, 0x40, 0x00, 
	0x02, 0x90, 0x40, 0x32, 0x82, 0x7E, 0x90, 0x40, 0x00, 0x81, 0x42, 0x90, 0x3E, 0x32, 0x5E, 0x90, 
	0x3E, 0x00, 0x02, 0x90, 0x40, 0x32, 0x5E, 0x90, 0x40, 0x00, 0x02, 0x90, 0x42, 0x32, 0x81, 0x3E, 
	0x90, 0x42, 0x00, 0x02, 0x90, 0x45, 0x32, 0x81, 0x3E, 0x90, 0x45, 0x00, 0x02, 0x90, 0x45, 0x32, 
	0x5E, 0x90, 0x45, 0x00, 0x02, 0x90, 0x42, 0x32, 0x81, 0x3E, 0x90, 0x42, 0x00, 0x02, 0x90, 0x45, 
	0x32, 0x5E, 0x90, 0x45, 0x00, 0x02, 0x90, 0x47, 0x32, 0x81, 0x3E, 0x90, 0x47, 0x00, 0x02, 0x90, 
	0x45, 0x32, 0x5E, 0x90, 0x45, 0x00, 0x02, 0x90, 0x42, 0x32, 0x5E, 0x90, 0x42, 0x00, 0x02, 0x90, 
	0x42, 0x32, 0x81, 0x3E, 0x90, 0x42, 0x00, 0x02, 0x90, 0x42, 0x32, 0x5E, 0x90, 0x42, 0x00, 0x02, 
	0x90, 0x45, 0x32, 0x5E, 0x90, 0x45, 0x00, 0x02, 0x90, 0x43, 0x32, 0x00, 0x90, 0x47, 0x32, 0x81, 
	0x3E, 0x90, 0x43, 0x00, 0x00, 0x90, 0x47, 0x00, 0x02, 0x90, 0x4A, 0x32, 0x81, 0x3E, 0x90, 0x4A, 
	0x00, 0x02, 0x90, 0x42, 0x32, 0x00, 0x90, 0x47, 0x32, 0x5E, 0x90, 0x42, 0x00, 0x00, 0x90, 0x47, 
	0x00, 0x02, 0x90, 0x45, 0x32, 0x5E, 0x90, 0x45, 0x00, 0x62, 0x90, 0x47, 0x32, 0x5E, 0x90, 0x47, 
	0x00, 0x02, 0x90, 0x49, 0x32, 0x82, 0x7E, 0x90, 0x49, 0x00, 0x81, 0x42, 0x90, 0x42, 0x32, 0x5E, 
	0x90, 0x42, 0x00, 0x02, 0x90, 0x45, 0x32, 0x5E, 0x90, 0x45, 0x00, 0x02, 0x90, 0x43, 0x32, 0x00, 
	0x90, 0x47, 0x32, 0x81, 0x3E, 0x90, 0x43, 0x00, 0x00, 0x90, 0x47, 0x00, 0x02, 0x90, 0x4A, 0x32, 
	0x81, 0x3E, 0x90, 0x4A, 0x00, 0x02, 0x90, 0x4A, 0x32, 0x5E, 0x90, 0x4A, 0x00, 0x02, 0x90, 0x47, 
	0x32, 0x81, 0x3E, 0x90, 0x47, 0x00, 0x02, 0x90, 0x4A, 0x32, 0x5E, 0x90, 0x4A, 0x00, 0x02, 0x90, 
	0x44, 0x32, 0x00, 0x90, 0x4C, 0x32, 0x81, 0x3E, 0x90, 0x44, 0x00, 0x00, 0x90, 0x4C, 0x00, 0x02, 
	0x90, 0x4A, 0x32, 0x5E, 0x90, 0x4A, 0x00, 0x02, 0x90, 0x47, 0x32, 0x5E, 0x90, 0x47, 0x00, 0x81, 
	0x42, 0x90, 0x47, 0x32, 0x5E, 0x90, 0x47, 0x00, 0x02, 0x90, 0x44, 0x32, 0x5E, 0x90, 0x44, 0x00, 
	0x02, 0x90, 0x45, 0x32, 0x81, 0x3E, 0x90, 0x45, 0x00, 0x02, 0x90, 0x40, 0x32, 0x81, 0x3E, 0x90, 
	0x40, 0x00, 0x02, 0x90, 0x42, 0x32, 0x5E, 0x90, 0x42, 0x00, 0x02, 0x90, 0x40, 0x32, 0x5E, 0x90, 
	0x40, 0x00, 0x02, 0x90, 0x42, 0x32, 0x81, 0x3E, 0x90, 0x42, 0x00, 0x02, 0x90, 0x3E, 0x32, 0x84, 
	0x3E, 0x90, 0x3E, 0x00, 0x81, 0x42, 0x90, 0x42, 0x32, 0x00, 0x90, 0x45, 0x32, 0x00, 0x90, 0x4A, 
	0x32, 0x5E, 0x90, 0x42, 0x00, 0x00, 0x90, 0x45, 0x00, 0x00, 0x90, 0x4A, 0x00, 0x02, 0x90, 0x42, 
	0x32, 0x00, 0x90, 0x45, 0x32, 0x00, 0x90, 0x4A, 0x32, 0x5E, 0x90, 0x42, 0x00, 0x00, 0x90, 0x45, 
	0x00, 0x00, 0x90, 0x4A, 0x00, 0x02, 0x90, 0x42, 0x32, 0x00, 0x90, 0x45, 0x32, 0x00, 0x90, 0x4A, 
	0x32, 0x5E, 0x90, 0x42, 0x00, 0x00, 0x90, 0x45, 0x00, 0x00, 0x90, 0x4A, 0x00, 0x02, 0x90, 0x42, 
	0x32, 0x00, 0x90, 0x45, 0x32, 0x00, 0x90, 0x4A, 0x32, 0x5E, 0x90, 0x42, 0x00, 0x00, 0x90, 0x45, 
	0x00, 0x00, 0x90, 0x4A, 0x00, 0x02, 0x90, 0x47, 0x32, 0x81, 0x3E, 0x90, 0x47, 0x00, 0x02, 0x90, 
	0x42, 0x32, 0x5E, 0x90, 0x42, 0x00, 0x02, 0x90, 0x45, 0x32, 0x5E, 0x90, 0x45, 0x00, 0x02, 0x90, 
	0x45, 0x32, 0x84, 0x3E, 0x90, 0x45, 0x00, 0x02, 0x90, 0x42, 0x32, 0x5E, 0x90, 0x42, 0x00, 0x02, 
	0x90, 0x45, 0x32, 0x5E, 0x90, 0x45, 0x00, 0x02, 0x90, 0x42, 0x32, 0x00, 0x90, 0x47, 0x32, 0x5E, 
	0x90, 0x42, 0x00, 0x00, 0x90, 0x47, 0x00, 0x02, 0x90, 0x45, 0x32, 0x5E, 0x90, 0x45, 0x00, 0x02, 
	0x90, 0x47, 0x32, 0x5E, 0x90, 0x47, 0x00, 0x02, 0x90, 0x4A, 0x32, 0x5E, 0x90, 0x4A, 0x00, 0x02, 
	0x90, 0x42, 0x32, 0x00, 0x90, 0x47, 0x32, 0x81, 0x3E, 0x90, 0x42, 0x00, 0x00, 0x90, 0x47, 0x00, 
	0x02, 0x90, 0x3E, 0x32, 0x00, 0x90, 0x42, 0x32, 0x81, 0x3E, 0x90, 0x3E, 0x00, 0x00, 0x90, 0x42, 
	0x00, 0x02, 0x90, 0x3D, 0x32, 0x00, 0x90, 0x40, 0x32, 0x83, 0x00, 0x90, 0x3D, 0x00, 0x00, 0x90, 
	0x40, 0x00, 0x00, 0x90, 0x3D, 0x32, 0x00, 0x90, 0x40, 0x32, 0x5E, 0x90, 0x3D, 0x00, 0x00, 0x90, 
	0x40, 0x00, 0x02, 0x90, 0x45, 0x32, 0x5E, 0x90, 0x45, 0x00, 0x02, 0x90, 0x47, 0x32, 0x5E, 0x90, 
	0x47, 0x00, 0x02, 0x90, 0x4A, 0x32, 0x5E, 0x90, 0x4A, 0x00, 0x02, 0x90, 0x44, 0x32, 0x00, 0x90, 
	0x47, 0x32, 0x00, 0x90, 0x4C, 0x32, 0x5E, 0x90, 0x44, 0x00, 0x00, 0x90, 0x47, 0x00, 0x00, 0x90, 
	0x4C, 0x00, 0x02, 0x90, 0x4C, 0x32, 0x5E, 0x90, 0x4C, 0x00, 0x02, 0x90, 0x4C, 0x32, 0x5E, 0x90, 
	0x4C, 0x00, 0x02, 0x90, 0x4C, 0x32, 0x5E, 0x90, 0x4C, 0x00, 0x02, 0x90, 0x43, 0x32, 0x00, 0x90, 
	0x47, 0x32, 0x00, 0x90, 0x4A, 0x32, 0x81, 0x3E, 0x90, 0x43, 0x00, 0x00, 0x90, 0x47, 0x00, 0x00, 
	0x90, 0x4A, 0x00, 0x02, 0x90, 0x47, 0x32, 0x5E, 0x90, 0x47, 0x00, 0x02, 0x90, 0x4A, 0x32, 0x5E, 
	0x90, 0x4A, 0x00, 0x02, 0x90, 0x4A, 0x32, 0x84, 0x3E, 0x90, 0x4A, 0x00, 0x02, 0x90, 0x45, 0x32, 
	0x5E, 0x90, 0x45, 0x00, 0x02, 0x90, 0x47, 0x32, 0x5E, 0x90, 0x47, 0x00, 0x02, 0x90, 0x42, 0x32, 
	0x00, 0x90, 0x47, 0x32, 0x00, 0x90, 0x4A, 0x32, 0x5E, 0x90, 0x42, 0x00, 0x00, 0x90, 0x47, 0x00, 
	0x00, 0x90, 0x4A, 0x00, 0x02, 0x90, 0x4A, 0x32, 0x5E, 0x90, 0x4A, 0x00, 0x02, 0x90, 0x4A, 0x32, 
	0x5E, 0x90, 0x4A, 0x00, 0x02, 0x90, 0x47, 0x32, 0x5E, 0x90, 0x47, 0x00, 0x02, 0x90, 0x4A, 0x32, 
	0x81, 0x3E, 0x90, 0x4A, 0x00, 0x02, 0x90, 0x44, 0x32, 0x00, 0x90, 0x47, 0x32, 0x00, 0x90, 0x4E, 
	0x32, 0x81, 0x3E, 0x90, 0x44, 0x00, 0x00, 0x90, 0x47, 0x00, 0x00, 0x90, 0x4E, 0x00, 0x02, 0x90, 
	0x45, 0x32, 0x00, 0x90, 0x49, 0x32, 0x00, 0x90, 0x4C, 0x32, 0x82, 0x1E, 0x90, 0x45, 0x00, 0x00, 
	0x90, 0x49, 0x00, 0x00, 0x90, 0x4C, 0x00, 0x02, 0x90, 0x45, 0x32, 0x5E, 0x90, 0x45, 0x00, 0x02, 
	0x90, 0x47, 0x32, 0x81, 0x3E, 0x90, 0x47, 0x00, 0x02, 0x90, 0x4A, 0x32, 0x81, 0x3E, 0x90, 0x4A, 
	0x00, 0x02, 0x90, 0x4C, 0x32, 0x5E, 0x90, 0x4C, 0x00, 0x02, 0x90, 0x4E, 0x32, 0x5E, 0x90, 0x4E, 
	0x00, 0x02, 0x90, 0x4E, 0x32, 0x5E, 0x90, 0x4E, 0x00, 0x02, 0x90, 0x4E, 0x32, 0x82, 0x1E, 0x90, 
	0x4E, 0x00, 0x02, 0x90, 0x4C, 0x32, 0x5E, 0x90, 0x4C, 0x00, 0x02, 0x90, 0x4A, 0x32, 0x5E, 0x90, 
	0x4A, 0x00, 0x02, 0x90, 0x51, 0x32, 0x81, 0x3E, 0x90, 0x51, 0x00, 0x02, 0x90, 0x4E, 0x32, 0x5E, 
	0x90, 0x4E, 0x00, 0x02, 0x90, 0x4E, 0x32, 0x82, 0x1E, 0x90, 0x4E, 0x00, 0x02, 0x90, 0x4C, 0x32, 
	0x5E, 0x90, 0x4C, 0x00, 0x02, 0x90, 0x4A, 0x32, 0x5E, 0x90, 0x4A, 0x00, 0x02, 0x90, 0x4C, 0x32, 
	0x5E, 0x90, 0x4C, 0x00, 0x02, 0x90, 0x4E, 0x32, 0x5E, 0x90, 0x4E, 0x00, 0x02, 0x90, 0x4C, 0x32, 
	0x5E, 0x90, 0x4C, 0x00, 0x02, 0x90, 0x4A, 0x32, 0x5E, 0x90, 0x4A, 0x00, 0x02, 0x90, 0x4C, 0x32, 
	0x5E, 0x90, 0x4C, 0x00, 0x02, 0x90, 0x4C, 0x32, 0x5E, 0x90, 0x4C, 0x00, 0x02, 0x90, 0x4E, 0x32, 
	0x5E, 0x90, 0x4E, 0x00, 0x02, 0x90, 0x4A, 0x32, 0x5E, 0x90, 0x4A, 0x00, 0x02, 0x90, 0x4A, 0x32, 
	0x5E, 0x90, 0x4A, 0x00, 0x02, 0x90, 0x47, 0x32, 0x83, 0x5E, 0x90, 0x47, 0x00, 0x84, 0x42, 0x90, 
	0x53, 0x32, 0x00, 0x90, 0x5A, 0x32, 0x60, 0x90, 0x53, 0x00, 0x00, 0x90, 0x5A, 0x00, 0x00, 0x90, 
	0x4E, 0x32, 0x5E, 0x90, 0x4E, 0x00, 0x84, 0x42, 0x90, 0x51, 0x32, 0x00, 0x90, 0x56, 0x32, 0x60, 
	0x90, 0x51, 0x00, 0x00, 0x90, 0x56, 0x00, 0x00, 0x90, 0x4E, 0x32, 0x5E, 0x90, 0x4E, 0x00, 0x83, 
	0x02, 0x90, 0x51, 0x32, 0x00, 0x90, 0x56, 0x32, 0x60, 0x90, 0x51, 0x00, 0x00, 0x90, 0x56, 0x00, 
	0x00, 0x90, 0x4E, 0x32, 0x5E, 0x90, 0x4E, 0x00, 0x02, 0x90, 0x53, 0x32, 0x00, 0x90, 0x5A, 0x32, 
	0x60, 0x90, 0x53, 0x00, 0x00, 0x90, 0x5A, 0x00, 0x00, 0x90, 0x4E, 0x32, 0x5E, 0x90, 0x4E, 0x00, 
	0x02, 0x90, 0x53, 0x32, 0x00, 0x90, 0x5A, 0x32, 0x60, 0x90, 0x53, 0x00, 0x00, 0x90, 0x5A, 0x00, 
	0x00, 0x90, 0x4E, 0x32, 0x5E, 0x90, 0x4E, 0x00, 0x62, 0x90, 0x4C, 0x32, 0x5E, 0x90, 0x4C, 0x00, 
	0x02, 0x90, 0x53, 0x32, 0x00, 0x90, 0x58, 0x32, 0x5E, 0x90, 0x53, 0x00, 0x00, 0x90, 0x58, 0x00, 
	0x02, 0x90, 0x4C, 0x32, 0x5E, 0x90, 0x4C, 0x00, 0x02, 0x90, 0x4C, 0x32, 0x5E, 0x90, 0x4C, 0x00, 
	0x02, 0x90, 0x45, 0x32, 0x5E, 0x90, 0x45, 0x00, 0x02, 0x90, 0x47, 0x32, 0x5E, 0x90, 0x47, 0x00, 
	0x02, 0x90, 0x49, 0x32, 0x5E, 0x90, 0x49, 0x00, 0x02, 0x90, 0x4C, 0x32, 0x5E, 0x90, 0x4C, 0x00, 
	0x02, 0x90, 0x4E, 0x32, 0x5E, 0x90, 0x4E, 0x00, 0x02, 0x90, 0x4E, 0x32, 0x5E, 0x90, 0x4E, 0x00, 
	0x02, 0x90, 0x4E, 0x32, 0x82, 0x1E, 0x90, 0x4E, 0x00, 0x02, 0x90, 0x4C, 0x32, 0x5E, 0x90, 0x4C, 
	0x00, 0x02, 0x90, 0x4A, 0x32, 0x5E, 0x90, 0x4A, 0x00, 0x02, 0x90, 0x51, 0x32, 0x81, 0x3E, 0x90, 
	0x51, 0x00, 0x02, 0x90, 0x4E, 0x32, 0x5E, 0x90, 0x4E, 0x00, 0x02, 0x90, 0x4E, 0x32, 0x82, 0x1E, 
	0x90, 0x4E, 0x00, 0x02, 0x90, 0x4C, 0x32, 0x5E, 0x90, 0x4C, 0x00, 0x02, 0x90, 0x4A, 0x32, 0x5E, 
	0x90, 0x4A, 0x00, 0x02, 0x90, 0x4C, 0x32, 0x5E, 0x90, 0x4C, 0x00, 0x02, 0x90, 0x4E, 0x32, 0x5E, 
	0x90, 0x4E, 0x00, 0x02, 0x90, 0x4C, 0x32, 0x5E, 0x90, 0x4C, 0x00, 0x02, 0x90, 0x4A, 0x32, 0x5E, 
	0x90, 0x4A, 0x00, 0x02, 0x90, 0x4C, 0x32, 0x5E, 0x90, 0x4C, 0x00, 0x02, 0x90, 0x4C, 0x32, 0x5E, 
	0x90, 0x4C, 0x00, 0x02, 0x90, 0x4E, 0x32, 0x5E, 0x90, 0x4E, 0x00, 0x02, 0x90, 0x4A, 0x32, 0x5E, 
	0x90, 0x4A, 0x00, 0x02, 0x90, 0x4A, 0x32, 0x5E, 0x90, 0x4A, 0x00, 0x02, 0x90, 0x47, 0x32, 0x83, 
	0x5E, 0x90, 0x47, 0x00, 0x83, 0x02, 0x90, 0x51, 0x32, 0x00, 0x90, 0x56, 0x32, 0x60, 0x90, 0x51, 
	0x00, 0x00, 0x90, 0x56, 0x00, 0x00, 0x90, 0x4E, 0x32, 0x5E, 0x90, 0x4E, 0x00, 0x02, 0x90, 0x51, 
	0x32, 0x00, 0x90, 0x56, 0x32, 0x81, 0x3E, 0x90, 0x51, 0x00, 0x00, 0x90, 0x56, 0x00, 0x62, 0x90, 
	0x45, 0x32, 0x5E, 0x90, 0x45, 0x00, 0x02, 0x90, 0x45, 0x32, 0x00, 0x90, 0x4A, 0x32, 0x00, 0x90, 
	0x4E, 0x32, 0x5E, 0x90, 0x45, 0x00, 0x00, 0x90, 0x4A, 0x00, 0x00, 0x90, 0x4E, 0x00, 0x02, 0x90, 
	0x4C, 0x32, 0x5E, 0x90, 0x4C, 0x00, 0x02, 0x90, 0x4A, 0x32, 0x5E, 0x90, 0x4A, 0x00, 0x02, 0x90, 
	0x4C, 0x32, 0x5E, 0x90, 0x4C, 0x00, 0x02, 0x90, 0x45, 0x32, 0x81, 0x3E, 0x90, 0x45, 0x00, 0x02, 
	0x90, 0x40, 0x32, 0x00, 0x90, 0x43, 0x32, 0x00, 0x90, 0x47, 0x32, 0x81, 0x3E, 0x90, 0x40, 0x00, 
	0x00, 0x90, 0x43, 0x00, 0x00, 0x90, 0x47, 0x00, 0x02, 0x90, 0x3E, 0x32, 0x00, 0x90, 0x42, 0x32, 
	0x00, 0x90, 0x45, 0x32, 0x83, 0x00, 0x90, 0x3E, 0x00, 0x00, 0x90, 0x42, 0x00, 0x00, 0x90, 0x45, 
	0x00, 0x00, 0x90, 0x3E, 0x32, 0x00, 0x90, 0x42, 0x32, 0x00, 0x90, 0x45, 0x32, 0x81, 0x3E, 0x90, 
	0x3E, 0x00, 0x00, 0x90, 0x42, 0x00, 0x00, 0x90, 0x45, 0x00, 0x02, 0x90, 0x47, 0x32, 0x5E, 0x90, 
	0x47, 0x00, 0x02, 0x90, 0x45, 0x32, 0x5E, 0x90, 0x45, 0x00, 0x02, 0x90, 0x47, 0x32, 0x5E, 0x90, 
	0x47, 0x00, 0x02, 0x90, 0x4A, 0x32, 0x5E, 0x90, 0x4A, 0x00, 0x02, 0x90, 0x4A, 0x32, 0x5E, 0x90, 
	0x4A, 0x00, 0x02, 0x90, 0x4A, 0x32, 0x60, 0x90, 0x4A, 0x00, 0x00, 0x90, 0x4A, 0x32, 0x81, 0x3E, 
	0x90, 0x4A, 0x00, 0x02, 0x90, 0x47, 0x32, 0x5E, 0x90, 0x47, 0x00, 0x02, 0x90, 0x4A, 0x32, 0x5E, 
	0x90, 0x4A, 0x00, 0x02, 0x90, 0x4C, 0x32, 0x5E, 0x90, 0x4C, 0x00, 0x02, 0x90, 0x4C, 0x32, 0x5E, 
	0x90, 0x4C, 0x00, 0x02, 0x90, 0x4E, 0x32, 0x5E, 0x90, 0x4E, 0x00, 0x02, 0x90, 0x45, 0x32, 0x5E, 
	0x90, 0x45, 0x00, 0x02, 0x90, 0x45, 0x32, 0x81, 0x3E, 0x90, 0x45, 0x00, 0x62, 0x90, 0x45, 0x32, 
	0x5E, 0x90, 0x45, 0x00, 0x02, 0x90, 0x47, 0x32, 0x00, 0x90, 0x4A, 0x32, 0x00, 0x90, 0x4E, 0x32, 
	0x81, 0x3E, 0x90, 0x47, 0x00, 0x00, 0x90, 0x4A, 0x00, 0x00, 0x90, 0x4E, 0x00, 0x02, 0x90, 0x43, 
	0x32, 0x00, 0x90, 0x47, 0x32, 0x00, 0x90, 0x4C, 0x32, 0x81, 0x3E, 0x90, 0x43, 0x00, 0x00, 0x90, 
	0x47, 0x00, 0x00, 0x90, 0x4C, 0x00, 0x02, 0x90, 0x44, 0x32, 0x00, 0x90, 0x47, 0x32, 0x00, 0x90, 
	0x4C, 0x32, 0x81, 0x3E, 0x90, 0x44, 0x00, 0x00, 0x90, 0x47, 0x00, 0x00, 0x90, 0x4C, 0x00, 0x02, 
	0x90, 0x44, 0x32, 0x00, 0x90, 0x4A, 0x32, 0x00, 0x90, 0x4E, 0x32, 0x81, 0x3E, 0x90, 0x44, 0x00, 
	0x00, 0x90, 0x4A, 0x00, 0x00, 0x90, 0x4E, 0x00, 0x02, 0x90, 0x45, 0x32, 0x81, 0x3E, 0x90, 0x45, 
	0x00, 0x02, 0x90, 0x3E, 0x32, 0x00, 0x90, 0x42, 0x32, 0x81, 0x3E, 0x90, 0x3E, 0x00, 0x00, 0x90, 
	0x42, 0x00, 0x02, 0x90, 0x40, 0x32, 0x81, 0x3E, 0x90, 0x40, 0x00, 0x02, 0x90, 0x40, 0x32, 0x00, 
	0x90, 0x43, 0x32, 0x00, 0x90, 0x47, 0x32, 0x81, 0x3E, 0x90, 0x40, 0x00, 0x00, 0x90, 0x43, 0x00, 
	0x00, 0x90, 0x47, 0x00, 0x02, 0x90, 0x42, 0x32, 0x00, 0x90, 0x45, 0x32, 0x00, 0x90, 0x4A, 0x32, 
	0x82, 0x7E, 0x90, 0x42, 0x00, 0x00, 0x90, 0x45, 0x00, 0x00, 0x90, 0x4A, 0x00, 0x62, 0x90, 0x45, 
	0x32, 0x5E, 0x90, 0x45, 0x00, 0x02, 0x90, 0x4A, 0x32, 0x5E, 0x90, 0x4A, 0x00, 0x02, 0x90, 0x4E, 
	0x32, 0x5E, 0x90, 0x4E, 0x00, 0x02, 0x90, 0x4E, 0x32, 0x00, 0x90, 0x51, 0x32, 0x00, 0x90, 0x56, 
	0x32, 0x82, 0x7E, 0x90, 0x4E, 0x00, 0x00, 0x90, 0x51, 0x00, 0x00, 0x90, 0x56, 0x00, 0x00, 0xFF, 
	0x2F, 0x00, 0x4D, 0x54, 0x72, 0x6B, 0x00, 0x00, 0x08, 0xD1, 0x00, 0xFF, 0x21, 0x01, 0x00, 0x00, 
	0xFF, 0x01, 0x0B, 0x55, 0x6E, 0x6E, 0x61, 0x6D, 0x65, 0x64, 0x2D, 0x30, 0x30, 0x31, 0x00, 0xFF, 
	0x03, 0x0B, 0x55, 0x6E, 0x6E, 0x61, 0x6D, 0x65, 0x64, 0x2D, 0x30, 0x30, 0x31, 0x00, 0xFF, 0x04, 
	0x0B, 0x55, 0x6E, 0x6E, 0x61, 0x6D, 0x65, 0x64, 0x2D, 0x30, 0x30, 0x31, 0x00, 0xC1, 0x02, 0x00, 
	0xB1, 0x07, 0x7F, 0x00, 0xB1, 0x0A, 0x40, 0x86, 0x00, 0x91, 0x32, 0x32, 0x81, 0x3E, 0x91, 0x32, 
	0x00, 0x02, 0x91, 0x36, 0x32, 0x00, 0x91, 0x39, 0x32, 0x81, 0x3E, 0x91, 0x36, 0x00, 0x00, 0x91, 
	0x39, 0x00, 0x02, 0x91, 0x31, 0x32, 0x81, 0x3E, 0x91, 0x31, 0x00, 0x02, 0x91, 0x36, 0x32, 0x00, 
	0x91, 0x39, 0x32, 0x81, 0x3E, 0x91, 0x36, 0x00, 0x00, 0x91, 0x39, 0x00, 0x02, 0x91, 0x2F, 0x32, 
	0x81, 0x3E, 0x91, 0x2F, 0x00, 0x02, 0x91, 0x32, 0x32, 0x00, 0x91, 0x36, 0x32, 0x81, 0x3E, 0x91, 
	0x32, 0x00, 0x00, 0x91, 0x36, 0x00, 0x02, 0x91, 0x2D, 0x32, 0x81, 0x3E, 0x91, 0x2D, 0x00, 0x02, 
	0x91, 0x32, 0x32, 0x00, 0x91, 0x36, 0x32, 0x81, 0x3E, 0x91, 0x32, 0x00, 0x00, 0x91, 0x36, 0x00, 
	0x02, 0x91, 0x2B, 0x32, 0x81, 0x3E, 0x91, 0x2B, 0x00, 0x02, 0x91, 0x32, 0x32, 0x00, 0x91, 0x37, 
	0x32, 0x81, 0x3E, 0x91, 0x32, 0x00, 0x00, 0x91, 0x37, 0x00, 0x02, 0x91, 0x2A, 0x32, 0x81, 0x3E, 
	0x91, 0x2A, 0x00, 0x02, 0x91, 0x2F, 0x32, 0x00, 0x91, 0x32, 0x32, 0x81, 0x3E, 0x91, 0x2F, 0x00, 
	0x00, 0x91, 0x32, 0x00, 0x02, 0x91, 0x28, 0x32, 0x5E, 0x91, 0x28, 0x00, 0x02, 0x91, 0x2F, 0x32, 
	0x5E, 0x91, 0x2F, 0x00, 0x02, 0x91, 0x34, 0x32, 0x5E, 0x91, 0x34, 0x00, 0x02, 0x91, 0x37, 0x32, 
	0x5E, 0x91, 0x37, 0x00, 0x02, 0x91, 0x3B, 0x32, 0x81, 0x3E, 0x91, 0x3B, 0x00, 0x81, 0x42, 0x91, 
	0x37, 0x32, 0x81, 0x3E, 0x91, 0x37, 0x00, 0x02, 0x91, 0x3B, 0x32, 0x00, 0x91, 0x3E, 0x32, 0x81, 
	0x3E, 0x91, 0x3B, 0x00, 0x00, 0x91, 0x3E, 0x00, 0x02, 0x91, 0x36, 0x32, 0x81, 0x3E, 0x91, 0x36, 
	0x00, 0x02, 0x91, 0x3B, 0x32, 0x00, 0x91, 0x3E, 0x32, 0x81, 0x3E, 0x91, 0x3B, 0x00, 0x00, 0x91, 
	0x3E, 0x00, 0x02, 0x91, 0x34, 0x32, 0x81, 0x3E, 0x91, 0x34, 0x00, 0x02, 0x91, 0x3B, 0x32, 0x00, 
	0x91, 0x40, 0x32, 0x81, 0x3E, 0x91, 0x3B, 0x00, 0x00, 0x91, 0x40, 0x00, 0x02, 0x91, 0x37, 0x32, 
	0x81, 0x3E, 0x91, 0x37, 0x00, 0x02, 0x91, 0x36, 0x32, 0x81, 0x3E, 0x91, 0x36, 0x00, 0x62, 0x91, 
	0x34, 0x32, 0x60, 0x91, 0x34, 0x00, 0x00, 0x91, 0x38, 0x32, 0x60, 0x91, 0x38, 0x00, 0x00, 0x91, 
	0x3B, 0x32, 0x60, 0x91, 0x3B, 0x00, 0x00, 0x91, 0x3E, 0x32, 0x81, 0x3E, 0x91, 0x3E, 0x00, 0x81, 
	0x42, 0x91, 0x2D, 0x32, 0x60, 0x91, 0x2D, 0x00, 0x00, 0x91, 0x34, 0x32, 0x60, 0x91, 0x34, 0x00, 
	0x00, 0x91, 0x39, 0x32, 0x60, 0x91, 0x39, 0x00, 0x00, 0x91, 0x3B, 0x32, 0x60, 0x91, 0x3B, 0x00, 
	0x00, 0x91, 0x39, 0x32, 0x00, 0x91, 0x3D, 0x32, 0x81, 0x3E, 0x91, 0x39, 0x00, 0x00, 0x91, 0x3D, 
	0x00, 0x81, 0x42, 0x91, 0x32, 0x32, 0x81, 0x3E, 0x91, 0x32, 0x00, 0x02, 0x91, 0x36, 0x32, 0x00, 
	0x91, 0x39, 0x32, 0x81, 0x3E, 0x91, 0x36, 0x00, 0x00, 0x91, 0x39, 0x00, 0x02, 0x91, 0x31, 0x32, 
	0x81, 0x3E, 0x91, 0x31, 0x00, 0x02, 0x91, 0x36, 0x32, 0x00, 0x91, 0x39, 0x32, 0x81, 0x3E, 0x91, 
	0x36, 0x00, 0x00, 0x91, 0x39, 0x00, 0x02, 0x91, 0x2F, 0x32, 0x81, 0x3E, 0x91, 0x2F, 0x00, 0x02, 
	0x91, 0x32, 0x32, 0x00, 0x91, 0x36, 0x32, 0x81, 0x3E, 0x91, 0x32, 0x00, 0x00, 0x91, 0x36, 0x00, 
	0x02, 0x91, 0x2D, 0x32, 0x81, 0x3E, 0x91, 0x2D, 0x00, 0x02, 0x91, 0x32, 0x32, 0x00, 0x91, 0x36, 
	0x32, 0x81, 0x3E, 0x91, 0x32, 0x00, 0x00, 0x91, 0x36, 0x00, 0x02, 0x91, 0x2B, 0x32, 0x81, 0x3E, 
	0x91, 0x2B, 0x00, 0x02, 0x91, 0x32, 0x32, 0x00, 0x91, 0x37, 0x32, 0x81, 0x3E, 0x91, 0x32, 0x00, 
	0x00, 0x91, 0x37, 0x00, 0x02, 0x91, 0x2A, 0x32, 0x81, 0x3E, 0x91, 0x2A, 0x00, 0x02, 0x91, 0x2F, 
	0x32, 0x00, 0x91, 0x32, 0x32, 0x81, 0x3E, 0x91, 0x2F, 0x00, 0x00, 0x91, 0x32, 0x00, 0x02, 0x91, 
	0x28, 0x32, 0x5E, 0x91, 0x28, 0x00, 0x02, 0x91, 0x2F, 0x32, 0x5E, 0x91, 0x2F, 0x00, 0x02, 0x91, 
	0x34, 0x32, 0x5E, 0x91, 0x34, 0x00, 0x02, 0x91, 0x37, 0x32, 0x5E, 0x91, 0x37, 0x00, 0x02, 0x91, 
	0x3B, 0x32, 0x81, 0x3E, 0x91, 0x3B, 0x00, 0x81, 0x42, 0x91, 0x37, 0x32, 0x81, 0x3E, 0x91, 0x37, 
	0x00, 0x02, 0x91, 0x3B, 0x32, 0x00, 0x91, 0x3E, 0x32, 0x81, 0x3E, 0x91, 0x3B, 0x00, 0x00, 0x91, 
	0x3E, 0x00, 0x02, 0x91, 0x36, 0x32, 0x81, 0x3E, 0x91, 0x36, 0x00, 0x02, 0x91, 0x3B, 0x32, 0x00, 
	0x91, 0x3E, 0x32, 0x81, 0x3E, 0x91, 0x3B, 0x00, 0x00, 0x91, 0x3E, 0x00, 0x02, 0x91, 0x34, 0x32, 
	0x5E, 0x91, 0x34, 0x00, 0x02, 0x91, 0x3B, 0x32, 0x5E, 0x91, 0x3B, 0x00, 0x02, 0x91, 0x3E, 0x32, 
	0x5E, 0x91, 0x3E, 0x00, 0x02, 0x91, 0x40, 0x32, 0x5E, 0x91, 0x40, 0x00, 0x02, 0x91, 0x3E, 0x32, 
	0x00, 0x91, 0x42, 0x32, 0x81, 0x3E, 0x91, 0x3E, 0x00, 0x00, 0x91, 0x42, 0x00, 0x81, 0x42, 0x91, 
	0x2D, 0x32, 0x5E, 0x91, 0x2D, 0x00, 0x02, 0x91, 0x34, 0x32, 0x5E, 0x91, 0x34, 0x00, 0x02, 0x91, 
	0x37, 0x32, 0x5E, 0x91, 0x37, 0x00, 0x02, 0x91, 0x39, 0x32, 0x5E, 0x91, 0x39, 0x00, 0x02, 0x91, 
	0x3B, 0x32, 0x81, 0x3E, 0x91, 0x3B, 0x00, 0x02, 0x91, 0x39, 0x32, 0x00, 0x91, 0x3D, 0x32, 0x81, 
	0x3E, 0x91, 0x39, 0x00, 0x00, 0x91, 0x3D, 0x00, 0x62, 0x91, 0x39, 0x32, 0x5E, 0x91, 0x39, 0x00, 
	0x02, 0x91, 0x36, 0x32, 0x5E, 0x91, 0x36, 0x00, 0x02, 0x91, 0x34, 0x32, 0x5E, 0x91, 0x34, 0x00, 
	0x02, 0x91, 0x32, 0x32, 0x82, 0x7E, 0x91, 0x32, 0x00, 0x02, 0x91, 0x36, 0x32, 0x81, 0x3E, 0x91, 
	0x36, 0x00, 0x02, 0x91, 0x39, 0x32, 0x00, 0x91, 0x3E, 0x32, 0x81, 0x3E, 0x91, 0x39, 0x00, 0x00, 
	0x91, 0x3E, 0x00, 0x02, 0x91, 0x34, 0x32, 0x81, 0x3E, 0x91, 0x34, 0x00, 0x02, 0x91, 0x3B, 0x32, 
	0x00, 0x91, 0x3E, 0x32, 0x81, 0x3E, 0x91, 0x3B, 0x00, 0x00, 0x91, 0x3E, 0x00, 0x02, 0x91, 0x32, 
	0x32, 0x60, 0x91, 0x32, 0x00, 0x00, 0x91, 0x34, 0x32, 0x60, 0x91, 0x34, 0x00, 0x00, 0x91, 0x36, 
	0x32, 0x60, 0x91, 0x36, 0x00, 0x00, 0x91, 0x39, 0x32, 0x60, 0x91, 0x39, 0x00, 0x00, 0x91, 0x3E, 
	0x32, 0x81, 0x3E, 0x91, 0x3E, 0x00, 0x02, 0x91, 0x3D, 0x32, 0x81, 0x3E, 0x91, 0x3D, 0x00, 0x02, 
	0x91, 0x2F, 0x32, 0x81, 0x3E, 0x91, 0x2F, 0x00, 0x02, 0x91, 0x36, 0x32, 0x00, 0x91, 0x3B, 0x32, 
	0x81, 0x3E, 0x91, 0x36, 0x00, 0x00, 0x91, 0x3B, 0x00, 0x02, 0x91, 0x32, 0x32, 0x81, 0x3E, 0x91, 
	0x32, 0x00, 0x02, 0x91, 0x36, 0x32, 0x00, 0x91, 0x3B, 0x32, 0x81, 0x3E, 0x91, 0x36, 0x00, 0x00, 
	0x91, 0x3B, 0x00, 0x02, 0x91, 0x2D, 0x32, 0x60, 0x91, 0x2D, 0x00, 0x00, 0x91, 0x2F, 0x32, 0x60, 
	0x91, 0x2F, 0x00, 0x00, 0x91, 0x31, 0x32, 0x60, 0x91, 0x31, 0x00, 0x00, 0x91, 0x34, 0x32, 0x5E, 
	0x91, 0x34, 0x00, 0x02, 0x91, 0x39, 0x32, 0x81, 0x3E, 0x91, 0x39, 0x00, 0x02, 0x91, 0x36, 0x32, 
	0x81, 0x3E, 0x91, 0x36, 0x00, 0x02, 0x91, 0x34, 0x32, 0x81, 0x3E, 0x91, 0x34, 0x00, 0x02, 0x91, 
	0x3B, 0x32, 0x00, 0x91, 0x3E, 0x32, 0x81, 0x3E, 0x91, 0x3B, 0x00, 0x00, 0x91, 0x3E, 0x00, 0x02, 
	0x91, 0x37, 0x32, 0x81, 0x3E, 0x91, 0x37, 0x00, 0x02, 0x91, 0x3B, 0x32, 0x00, 0x91, 0x3E, 0x32, 
	0x81, 0x3E, 0x91, 0x3B, 0x00, 0x00, 0x91, 0x3E, 0x00, 0x02, 0x91, 0x36, 0x32, 0x60, 0x91, 0x36, 
	0x00, 0x00, 0x91, 0x39, 0x32, 0x60, 0x91, 0x39, 0x00, 0x00, 0x91, 0x36, 0x32, 0x60, 0x91, 0x36, 
	0x00, 0x00, 0x91, 0x34, 0x32, 0x5E, 0x91, 0x34, 0x00, 0x02, 0x91, 0x32, 0x32, 0x81, 0x3E, 0x91, 
	0x32, 0x00, 0x02, 0x91, 0x31, 0x32, 0x81, 0x3E, 0x91, 0x31, 0x00, 0x02, 0x91, 0x2F, 0x32, 0x81, 
	0x3E, 0x91, 0x2F, 0x00, 0x02, 0x91, 0x36, 0x32, 0x00, 0x91, 0x3B, 0x32, 0x81, 0x3E, 0x91, 0x36, 
	0x00, 0x00, 0x91, 0x3B, 0x00, 0x02, 0x91, 0x34, 0x32, 0x81, 0x3E, 0x91, 0x34, 0x00, 0x02, 0x91, 
	0x3B, 0x32, 0x00, 0x91, 0x3E, 0x32, 0x81, 0x3E, 0x91, 0x3B, 0x00, 0x00, 0x91, 0x3E, 0x00, 0x02, 
	0x91, 0x2D, 0x32, 0x00, 0x91, 0x39, 0x32, 0x82, 0x7E, 0x91, 0x2D, 0x00, 0x00, 0x91, 0x39, 0x00, 
	0x62, 0x91, 0x39, 0x32, 0x5E, 0x91, 0x39, 0x00, 0x02, 0x91, 0x36, 0x32, 0x5E, 0x91, 0x36, 0x00, 
	0x02, 0x91, 0x34, 0x32, 0x5E, 0x91, 0x34, 0x00, 0x02, 0x91, 0x32, 0x32, 0x5E, 0x91, 0x32, 0x00, 
	0x62, 0x91, 0x3E, 0x32, 0x00, 0x91, 0x42, 0x32, 0x60, 0x91, 0x3E, 0x00, 0x00, 0x91, 0x42, 0x00, 
	0x00, 0x91, 0x45, 0x32, 0x5E, 0x91, 0x45, 0x00, 0x02, 0x91, 0x3E, 0x32, 0x00, 0x91, 0x42, 0x32, 
	0x60, 0x91, 0x3E, 0x00, 0x00, 0x91, 0x42, 0x00, 0x00, 0x91, 0x45, 0x32, 0x5E, 0x91, 0x45, 0x00, 
	0x81, 0x42, 0x91, 0x31, 0x32, 0x5E, 0x91, 0x31, 0x00, 0x62, 0x91, 0x3D, 0x32, 0x00, 0x91, 0x42, 
	0x32, 0x60, 0x91, 0x3D, 0x00, 0x00, 0x91, 0x42, 0x00, 0x00, 0x91, 0x45, 0x32, 0x5E, 0x91, 0x45, 
	0x00, 0x02, 0x91, 0x3D, 0x32, 0x00, 0x91, 0x42, 0x32, 0x60, 0x91, 0x3D, 0x00, 0x00, 0x91, 0x42, 
	0x00, 0x00, 0x91, 0x45, 0x32, 0x5E, 0x91, 0x45, 0x00, 0x81, 0x42, 0x91, 0x2F, 0x32, 0x5E, 0x91, 
	0x2F, 0x00, 0x62, 0x91, 0x36, 0x32, 0x00, 0x91, 0x3B, 0x32, 0x5E, 0x91, 0x36, 0x00, 0x00, 0x91, 
	0x3B, 0x00, 0x62, 0x91, 0x2D, 0x32, 0x5E, 0x91, 0x2D, 0x00, 0x62, 0x91, 0x39, 0x32, 0x00, 0x91, 
	0x3D, 0x32, 0x5E, 0x91, 0x39, 0x00, 0x00, 0x91, 0x3D, 0x00, 0x62, 0x91, 0x2F, 0x32, 0x81, 0x3E, 
	0x91, 0x2F, 0x00, 0x02, 0x91, 0x32, 0x32, 0x5E, 0x91, 0x32, 0x00, 0x02, 0x91, 0x36, 0x32, 0x5E, 
	0x91, 0x36, 0x00, 0x02, 0x91, 0x3B, 0x32, 0x81, 0x3E, 0x91, 0x3B, 0x00, 0x02, 0x91, 0x3B, 0x32, 
	0x5E, 0x91, 0x3B, 0x00, 0x02, 0x91, 0x39, 0x32, 0x5E, 0x91, 0x39, 0x00, 0x02, 0x91, 0x3B, 0x32, 
	0x5E, 0x91, 0x3B, 0x00, 0x02, 0x91, 0x3E, 0x32, 0x5E, 0x91, 0x3E, 0x00, 0x02, 0x91, 0x3E, 0x32, 
	0x5E, 0x91, 0x3E, 0x00, 0x02, 0x91, 0x3E, 0x32, 0x60, 0x91, 0x3E, 0x00, 0x00, 0x91, 0x3E, 0x32, 
	0x81, 0x3E, 0x91, 0x3E, 0x00, 0x02, 0x91, 0x3B, 0x32, 0x5E, 0x91, 0x3B, 0x00, 0x02, 0x91, 0x3E, 
	0x32, 0x5E, 0x91, 0x3E, 0x00, 0x02, 0x91, 0x40, 0x32, 0x5E, 0x91, 0x40, 0x00, 0x02, 0x91, 0x40, 
	0x32, 0x5E, 0x91, 0x40, 0x00, 0x02, 0x91, 0x42, 0x32, 0x5E, 0x91, 0x42, 0x00, 0x02, 0x91, 0x39, 
	0x32, 0x5E, 0x91, 0x39, 0x00, 0x81, 0x42, 0x91, 0x39, 0x32, 0x5E, 0x91, 0x39, 0x00, 0x02, 0x91, 
	0x3B, 0x32, 0x5E, 0x91, 0x3B, 0x00, 0x02, 0x91, 0x3E, 0x32, 0x5E, 0x91, 0x3E, 0x00, 0x02, 0x91, 
	0x3E, 0x32, 0x5E, 0x91, 0x3E, 0x00, 0x02, 0x91, 0x3E, 0x32, 0x5E, 0x91, 0x3E, 0x00, 0x02, 0x91, 
	0x3E, 0x32, 0x5E, 0x91, 0x3E, 0x00, 0x62, 0x91, 0x3B, 0x32, 0x5E, 0x91, 0x3B, 0x00, 0x02, 0x91, 
	0x3E, 0x32, 0x81, 0x3E, 0x91, 0x3E, 0x00, 0x02, 0x91, 0x40, 0x32, 0x82, 0x7E, 0x91, 0x40, 0x00, 
	0x83, 0x02, 0x91, 0x32, 0x32, 0x5E, 0x91, 0x32, 0x00, 0x62, 0x91, 0x3E, 0x32, 0x00, 0x91, 0x42, 
	0x32, 0x60, 0x91, 0x3E, 0x00, 0x00, 0x91, 0x42, 0x00, 0x00, 0x91, 0x45, 0x32, 0x5E, 0x91, 0x45, 
	0x00, 0x02, 0x91, 0x3E, 0x32, 0x00, 0x91, 0x42, 0x32, 0x60, 0x91, 0x3E, 0x00, 0x00, 0x91, 0x42, 
	0x00, 0x00, 0x91, 0x45, 0x32, 0x5E, 0x91, 0x45, 0x00, 0x81, 0x42, 0x91, 0x31, 0x32, 0x5E, 0x91, 
	0x31, 0x00, 0x62, 0x91, 0x3D, 0x32, 0x00, 0x91, 0x42, 0x32, 0x60, 0x91, 0x3D, 0x00, 0x00, 0x91, 
	0x42, 0x00, 0x00, 0x91, 0x45, 0x32, 0x5E, 0x91, 0x45, 0x00, 0x02, 0x91, 0x3D, 0x32, 0x00, 0x91, 
	0x42, 0x32, 0x60, 0x91, 0x3D, 0x00, 0x00, 0x91, 0x42, 0x00, 0x00, 0x91, 0x45, 0x32, 0x5E, 0x91, 
	0x45, 0x00, 0x81, 0x42, 0x91, 0x2F, 0x32, 0x5E, 0x91, 0x2F, 0x00, 0x62, 0x91, 0x36, 0x32, 0x00, 
	0x91, 0x3B, 0x32, 0x5E, 0x91, 0x36, 0x00, 0x00, 0x91, 0x3B, 0x00, 0x62, 0x91, 0x2D, 0x32, 0x5E, 
	0x91, 0x2D, 0x00, 0x62, 0x91, 0x39, 0x32, 0x00, 0x91, 0x3D, 0x32, 0x5E, 0x91, 0x39, 0x00, 0x00, 
	0x91, 0x3D, 0x00, 0x62, 0x91, 0x2F, 0x32, 0x81, 0x3E, 0x91, 0x2F, 0x00, 0x02, 0x91, 0x32, 0x32, 
	0x5E, 0x91, 0x32, 0x00, 0x02, 0x91, 0x36, 0x32, 0x5E, 0x91, 0x36, 0x00, 0x02, 0x91, 0x3B, 0x32, 
	0x81, 0x3E, 0x91, 0x3B, 0x00, 0x02, 0x91, 0x3B, 0x32, 0x5E, 0x91, 0x3B, 0x00, 0x02, 0x91, 0x39, 
	0x32, 0x5E, 0x91, 0x39, 0x00, 0x02, 0x91, 0x40, 0x32, 0x5E, 0x91, 0x40, 0x00, 0x02, 0x91, 0x40, 
	0x32, 0x5E, 0x91, 0x40, 0x00, 0x02, 0x91, 0x42, 0x32, 0x5E, 0x91, 0x42, 0x00, 0x02, 0x91, 0x39, 
	0x32, 0x60, 0x91, 0x39, 0x00, 0x00, 0x91, 0x39, 0x32, 0x81, 0x3E, 0x91, 0x39, 0x00, 0x81, 0x42, 
	0x91, 0x2A, 0x32, 0x00, 0x91, 0x36, 0x32, 0x83, 0x00, 0x91, 0x2A, 0x00, 0x00, 0x91, 0x36, 0x00, 
	0x00, 0x91, 0x2A, 0x32, 0x00, 0x91, 0x36, 0x32, 0x81, 0x3E, 0x91, 0x2A, 0x00, 0x00, 0x91, 0x36, 
	0x00, 0x02, 0x91, 0x2D, 0x32, 0x81, 0x3E, 0x91, 0x2D, 0x00, 0x02, 0x91, 0x26, 0x32, 0x60, 0x91, 
	0x26, 0x00, 0x00, 0x91, 0x2D, 0x32, 0x60, 0x91, 0x2D, 0x00, 0x00, 0x91, 0x32, 0x32, 0x60, 0x91, 
	0x32, 0x00, 0x00, 0x91, 0x34, 0x32, 0x60, 0x91, 0x34, 0x00, 0x00, 0x91, 0x32, 0x32, 0x00, 0x91, 
	0x36, 0x32, 0x81, 0x3E, 0x91, 0x32, 0x00, 0x00, 0x91, 0x36, 0x00, 0x81, 0x42, 0x91, 0x26, 0x32, 
	0x60, 0x91, 0x26, 0x00, 0x00, 0x91, 0x2D, 0x32, 0x60, 0x91, 0x2D, 0x00, 0x00, 0x91, 0x32, 0x32, 
	0x60, 0x91, 0x32, 0x00, 0x00, 0x91, 0x34, 0x32, 0x60, 0x91, 0x34, 0x00, 0x00, 0x91, 0x32, 0x32, 
	0x00, 0x91, 0x36, 0x32, 0x81, 0x3E, 0x91, 0x32, 0x00, 0x00, 0x91, 0x36, 0x00, 0x81, 0x42, 0x91, 
	0x28, 0x32, 0x5E, 0x91, 0x28, 0x00, 0x02, 0x91, 0x2F, 0x32, 0x5E, 0x91, 0x2F, 0x00, 0x02, 0x91, 
	0x32, 0x32, 0x5E, 0x91, 0x32, 0x00, 0x02, 0x91, 0x34, 0x32, 0x5E, 0x91, 0x34, 0x00, 0x02, 0x91, 
	0x32, 0x32, 0x00, 0x91, 0x36, 0x32, 0x81, 0x3E, 0x91, 0x32, 0x00, 0x00, 0x91, 0x36, 0x00, 0x81, 
	0x42, 0x91, 0x2F, 0x32, 0x00, 0x91, 0x3B, 0x32, 0x81, 0x3E, 0x91, 0x2F, 0x00, 0x00, 0x91, 0x3B, 
	0x00, 0x02, 0x91, 0x2B, 0x32, 0x00, 0x91, 0x37, 0x32, 0x81, 0x3E, 0x91, 0x2B, 0x00, 0x00, 0x91, 
	0x37, 0x00, 0x02, 0x91, 0x28, 0x32, 0x00, 0x91, 0x34, 0x32, 0x81, 0x3E, 0x91, 0x28, 0x00, 0x00, 
	0x91, 0x34, 0x00, 0x02, 0x91, 0x34, 0x32, 0x00, 0x91, 0x3B, 0x32, 0x81, 0x3E, 0x91, 0x34, 0x00, 
	0x00, 0x91, 0x3B, 0x00, 0x02, 0x91, 0x2D, 0x32, 0x60, 0x91, 0x2D, 0x00, 0x00, 0x91, 0x34, 0x32, 
	0x60, 0x91, 0x34, 0x00, 0x00, 0x91, 0x39, 0x32, 0x60, 0x91, 0x39, 0x00, 0x00, 0x91, 0x3B, 0x32, 
	0x5E, 0x91, 0x3B, 0x00, 0x02, 0x91, 0x39, 0x32, 0x00, 0x91, 0x3D, 0x32, 0x81, 0x3E, 0x91, 0x39, 
	0x00, 0x00, 0x91, 0x3D, 0x00, 0x81, 0x42, 0x91, 0x26, 0x32, 0x5E, 0x91, 0x26, 0x00, 0x02, 0x91, 
	0x2D, 0x32, 0x5E, 0x91, 0x2D, 0x00, 0x02, 0x91, 0x32, 0x32, 0x5E, 0x91, 0x32, 0x00, 0x02, 0x91, 
	0x36, 0x32, 0x5E, 0x91, 0x36, 0x00, 0x02, 0x91, 0x39, 0x32, 0x5E, 0x91, 0x39, 0x00, 0x02, 0x91, 
	0x3E, 0x32, 0x5E, 0x91, 0x3E, 0x00, 0x02, 0x91, 0x42, 0x32, 0x5E, 0x91, 0x42, 0x00, 0x02, 0x91, 
	0x45, 0x32, 0x5E, 0x91, 0x45, 0x00, 0x02, 0x91, 0x3E, 0x32, 0x00, 0x91, 0x45, 0x32, 0x82, 0x7E, 
	0x91, 0x3E, 0x00, 0x00, 0x91, 0x45, 0x00, 0x00, 0xFF, 0x2F, 0x00
};                                                                                                                                                                                                                                                                                                                                                                                                                                                                                                                                                                                                                                                                                                                                                                                                                                                                                                                                                                                                                                                                                                                                                                                                                                                                                                                                                                                                                                                                                                                                                                                                                                                                                                                                                                                                                                                                                                                                                                                                                                                                                                                                                                                                                                                                                                                                                                                                                                                                                                                                                                                                                                                                                                                                                                                                                                                                                                                                                                                                                                                                                                                                                                                                                                                                                                                                                                                        